# xmcd database file
#
# Track frame offsets:
# 150
# 11284
# 22064
# 33022
# 45500
# 57655
# 67063
# 81103
# 94095
# 106052
# 113684
#
# Disc length: 1651 seconds
#
# Revision: 0
# Processed by: cddbd v1.5.1PL2 Copyright (c) Steve Scherf et al.
# Submitted via: CD-Runner 2004.01
#
DISCID=8106710b
DTITLE=Ray Charles - Ray's Blues
DYEAR=1998
DGENRE=Blues
TTITLE0=A Sentimental Blues
TTITLE1=Hey Now
TTITLE2=I Wonder Who's Kissing Her Now
TTITLE3=I'll Never Let You Go
TTITLE4=C.C. Rider
TTITLE5=All To Myself Alone
TTITLE6=This Love Of Mine
TTITLE7=Can Anyone Ask For Me
TTITLE8=If I Give You My Love
TTITLE9=Ray's Blues
TTITLE10=Now She's Gone
EXTD=
EXTT0=
EXTT1=
EXTT2=
EXTT3=
EXTT4=
EXTT5=
EXTT6=
EXTT7=
EXTT8=
EXTT9=
EXTT10=
PLAYORDER=
